<?xml version="1.0" standalone="no"?>
<!DOCTYPE svg PUBLIC "-//W3C//DTD SVG 20010904//EN"
 "http://www.w3.org/TR/2001/REC-SVG-20010904/DTD/svg10.dtd">
<svg version="1.0" xmlns="http://www.w3.org/2000/svg"
 width="165.000000pt" height="165.000000pt" viewBox="0 0 165.000000 165.000000"
 preserveAspectRatio="xMidYMid meet">

<g transform="translate(0.000000,165.000000) scale(0.100000,-0.100000)"
fill="#000000" stroke="none">
<path d="M670 1449 c-238 -61 -423 -251 -476 -485 -21 -98 -15 -251 15 -344
61 -191 233 -362 426 -423 58 -18 93 -22 200 -22 114 1 139 4 203 27 102 37
172 82 250 159 125 126 180 250 189 424 11 219 -65 393 -238 540 -146 125
-375 175 -569 124z m215 -168 c72 -33 85 -76 32 -115 -38 -28 -141 -34 -190
-11 -35 16 -36 16 -67 -7 -42 -31 -60 -67 -60 -122 0 -36 6 -52 31 -81 17 -19
37 -35 45 -35 9 0 14 -11 14 -31 0 -24 -3 -30 -16 -25 -9 3 -19 6 -24 6 -5 0
-23 12 -40 26 -76 64 -95 176 -47 271 28 54 92 113 142 131 48 17 136 14 180
-7z m170 -88 c25 -16 44 -32 42 -38 -2 -5 -31 -11 -65 -13 l-61 -3 17 40 c9
23 18 41 19 41 1 0 23 -12 48 -27z m112 -107 c40 -58 53 -103 53 -180 0 -135
-67 -243 -187 -303 -54 -26 -68 -28 -195 -31 l-138 -4 0 -109 0 -109 -80 0
-80 0 0 135 0 135 41 0 c50 0 110 32 133 71 17 28 19 29 103 29 108 0 153 13
196 59 86 90 72 222 -30 290 -26 17 -54 31 -62 31 -14 0 -14 1 -1 10 20 13
107 2 147 -18 26 -13 35 -14 45 -4 9 9 8 12 -5 12 -20 0 -22 11 -5 28 18 18
30 11 65 -42z m-474 -58 c5 -52 -7 -63 -25 -23 -8 19 -8 31 1 51 15 34 18 30
24 -28z m-43 -239 c22 -7 40 -14 40 -16 0 -2 -7 -17 -15 -33 -19 -37 -43 -50
-94 -50 l-41 0 0 86 0 86 35 -31 c19 -16 53 -36 75 -42z"/>
<path d="M796 1255 c-22 -22 -4 -58 27 -53 17 2 22 10 22 33 0 35 -24 45 -49
20z m30 -32 c-10 -10 -19 5 -10 18 6 11 8 11 12 0 2 -7 1 -15 -2 -18z"/>
</g>
</svg>
